<svg width="41" height="41" viewBox="0 0 41 41" fill="none" xmlns="http://www.w3.org/2000/svg">
<g clip-path="url(#clip0_648_8977)">
<path d="M17.083 9.11133H27.333V11.3891H17.083V9.11133Z" fill="#F46A06"/>
<path d="M17.083 13.667H27.333V15.9448H17.083V13.667Z" fill="#F46A06"/>
<path d="M17.083 18.2227H27.333V20.5004H17.083V18.2227Z" fill="#F46A06"/>
<path d="M17.083 22.7773H27.333V25.0551H17.083V22.7773Z" fill="#F46A06"/>
<path d="M17.083 27.333H27.333V29.6108H17.083V27.333Z" fill="#F46A06"/>
<path d="M12.5273 9.11133H14.8051V11.3891H12.5273V9.11133Z" fill="#F46A06"/>
<path d="M12.5273 13.667H14.8051V15.9448H12.5273V13.667Z" fill="#F46A06"/>
<path d="M12.5273 18.2227H14.8051V20.5004H12.5273V18.2227Z" fill="#F46A06"/>
<path d="M12.5273 22.7773H14.8051V25.0551H12.5273V22.7773Z" fill="#F46A06"/>
<path d="M12.5273 27.333H14.8051V29.6108H12.5273V27.333Z" fill="#F46A06"/>
<path d="M31.8886 2.27734H9.11079C8.50668 2.27734 7.92732 2.51732 7.50015 2.94449C7.07299 3.37166 6.83301 3.95102 6.83301 4.55512V36.444C6.83301 37.0481 7.07299 37.6275 7.50015 38.0546C7.92732 38.4818 8.50668 38.7218 9.11079 38.7218H31.8886C32.4927 38.7218 33.072 38.4818 33.4992 38.0546C33.9264 37.6275 34.1663 37.0481 34.1663 36.444V4.55512C34.1663 3.95102 33.9264 3.37166 33.4992 2.94449C33.072 2.51732 32.4927 2.27734 31.8886 2.27734ZM31.8886 36.444H9.11079V4.55512H31.8886V36.444Z" fill="#F46A06"/>
</g>
<defs>
<clipPath id="clip0_648_8977">
<rect width="41" height="41" fill="white"/>
</clipPath>
</defs>
</svg>
