<svg width="84" height="83" viewBox="0 0 84 83" fill="none" xmlns="http://www.w3.org/2000/svg">
<path fill-rule="evenodd" clip-rule="evenodd" d="M53.5564 33.1405C53.5564 36.156 52.3588 39.048 50.2272 41.1803C48.0955 43.3126 45.2044 44.5105 42.1898 44.5105C39.1752 44.5105 36.2841 43.3126 34.1524 41.1803C32.0208 39.048 30.8232 36.156 30.8232 33.1405C30.8232 30.125 32.0208 27.233 34.1524 25.1007C36.2841 22.9684 39.1752 21.7705 42.1898 21.7705C45.2044 21.7705 48.0955 22.9684 50.2272 25.1007C52.3588 27.233 53.5564 30.125 53.5564 33.1405ZM47.8731 33.1405C47.8731 34.6483 47.2743 36.0943 46.2085 37.1604C45.1427 38.2265 43.6971 38.8255 42.1898 38.8255C40.6825 38.8255 39.2369 38.2265 38.1711 37.1604C37.1053 36.0943 36.5065 34.6483 36.5065 33.1405C36.5065 31.6327 37.1053 30.1867 38.1711 29.1206C39.2369 28.0545 40.6825 27.4555 42.1898 27.4555C43.6971 27.4555 45.1427 28.0545 46.2085 29.1206C47.2743 30.1867 47.8731 31.6327 47.8731 33.1405Z" fill="#1F1C1C"/>
<path fill-rule="evenodd" clip-rule="evenodd" d="M42.1897 10.4004C24.9267 10.4004 10.9316 24.3997 10.9316 41.6679C10.9316 58.936 24.9267 72.9353 42.1897 72.9353C59.4527 72.9353 73.4478 58.936 73.4478 41.6679C73.4478 24.3997 59.4527 10.4004 42.1897 10.4004ZM16.6149 41.6679C16.6149 47.6087 18.641 53.0776 22.0368 57.421C24.4216 54.2883 27.4981 51.7495 31.0261 50.0029C34.5541 48.2564 38.438 47.3494 42.3744 47.3529C46.2599 47.3492 50.0949 48.2327 53.5873 49.9361C57.0798 51.6395 60.1374 54.1178 62.5273 57.1822C64.9895 53.952 66.6472 50.1818 67.3635 46.1834C68.0798 42.1851 67.8339 38.0736 66.6463 34.1892C65.4587 30.3048 63.3634 26.7591 60.5339 23.8455C57.7044 20.9319 54.2219 18.7342 50.3747 17.4342C46.5275 16.1342 42.4261 15.7692 38.4099 16.3696C34.3937 16.9699 30.5782 18.5183 27.2789 20.8865C23.9797 23.2548 21.2917 26.3749 19.4373 29.9886C17.5829 33.6023 16.6154 37.6058 16.6149 41.6679ZM42.1897 67.2503C36.3187 67.2592 30.625 65.2388 26.0719 61.5312C27.9046 58.9069 30.3439 56.7641 33.1822 55.2854C36.0206 53.8066 39.1741 53.0356 42.3744 53.0378C45.5348 53.0353 48.6501 53.7871 51.4618 55.2306C54.2734 56.6742 56.7002 58.7679 58.5405 61.3379C53.9521 65.1659 48.1645 67.2587 42.1897 67.2503Z" fill="#1F1C1C"/>
</svg>
