<svg width="35" height="39" viewBox="0 0 35 39" fill="none" xmlns="http://www.w3.org/2000/svg">
<g clip-path="url(#clip0_648_8961)">
<path d="M35.0007 34.047C35.0043 34.7324 34.8627 35.4108 34.5855 36.0371C34.3083 36.6635 33.9016 37.2235 33.3926 37.68C32.8836 38.1366 32.2838 38.4793 31.6329 38.6854C30.982 38.8914 30.295 38.9562 29.6173 38.8754C27.1504 38.5088 25.3427 36.3526 25.4028 33.8485V5.05955C25.3432 2.55284 27.1554 0.395482 29.6255 0.0328094C30.3026 -0.0468048 30.9887 0.0188709 31.6386 0.225493C32.2885 0.432114 32.8873 0.774973 33.3954 1.23139C33.9035 1.68781 34.3094 2.24739 34.5861 2.87311C34.8629 3.49883 35.0042 4.17644 35.0007 4.86112V34.047Z" fill="#F9AB00"/>
<path d="M4.79896 29.2769C7.44939 29.2769 9.59793 31.4351 9.59793 34.0971C9.59793 36.7593 7.44939 38.9173 4.79896 38.9173C2.14854 38.9173 0 36.7593 0 34.0973C0 31.4351 2.14854 29.2769 4.79896 29.2769ZM17.426 14.6674C14.7632 14.8141 12.6969 17.0577 12.7589 19.7358V32.6834C12.7589 36.1972 14.2982 38.3304 16.5535 38.7851C17.2527 38.9274 17.9747 38.9117 18.6671 38.739C19.3595 38.5663 20.005 38.2409 20.5566 37.7865C21.1083 37.3322 21.5524 36.7601 21.8566 36.112C22.1609 35.4638 22.3177 34.7558 22.3156 34.0392V19.5126C22.3168 18.8704 22.1906 18.2345 21.9445 17.6418C21.6984 17.0491 21.3372 16.5115 20.882 16.0605C20.4269 15.6095 19.8869 15.2541 19.2935 15.0149C18.7002 14.7758 18.0653 14.6577 17.426 14.6676V14.6674Z" fill="#E37400"/>
</g>
<defs>
<clipPath id="clip0_648_8961">
<rect width="35" height="39" fill="white"/>
</clipPath>
</defs>
</svg>
