<svg width="40" height="37" viewBox="0 0 50 47" fill="none" xmlns="http://www.w3.org/2000/svg">
<path d="M48.1616 23.2756L26.2127 1.40628C26.0547 1.24839 25.867 1.12313 25.6603 1.03766C25.4537 0.952195 25.2322 0.908203 25.0084 0.908203C24.7847 0.908203 24.5632 0.952195 24.3566 1.03766C24.1499 1.12313 23.9622 1.24839 23.8042 1.40628L1.85531 23.2756C1.21587 23.9132 0.853516 24.7792 0.853516 25.6825C0.853516 27.558 2.38285 29.0829 4.26387 29.0829H6.57652V44.6879C6.57652 45.6284 7.33853 46.3882 8.2817 46.3882H21.5981V34.4865H27.5662V46.3882H41.7352C42.6784 46.3882 43.4404 45.6284 43.4404 44.6879V29.0829H45.753C46.6589 29.0829 47.5275 28.727 48.1669 28.084C49.4938 26.7557 49.4938 24.6039 48.1616 23.2756Z" fill="black"/>
</svg>
