<svg width="69" height="60" viewBox="0 0 69 60" fill="none" xmlns="http://www.w3.org/2000/svg">
<path d="M28.1697 28.3983C24.3674 28.3983 21.1124 27.0558 18.4047 24.3708C15.697 21.6857 14.3431 18.4579 14.3431 14.6874C14.3431 10.917 15.697 7.68918 18.4047 5.00413C21.1124 2.31909 24.3674 0.976562 28.1697 0.976562C31.972 0.976562 35.227 2.31909 37.9347 5.00413C40.6424 7.68918 41.9962 10.917 41.9962 14.6874C41.9962 18.4579 40.6424 21.6857 37.9347 24.3708C35.227 27.0558 31.972 28.3983 28.1697 28.3983ZM3.97324 55.8201C2.99386 55.8201 2.17348 55.491 1.51211 54.8329C0.848439 54.1771 0.516602 53.3636 0.516602 52.3924V46.2225C0.516602 44.3372 1.00629 42.5662 1.98567 40.9095C2.96505 39.2528 4.3189 37.9959 6.04722 37.139C8.98536 35.6537 12.298 34.3968 15.985 33.3685C19.6721 32.3402 23.7337 31.826 28.1697 31.826H29.3795C29.7252 31.826 30.0708 31.8832 30.4165 31.9974C29.9556 33.0257 29.5662 34.0975 29.2482 35.2126C28.9325 36.3255 28.6882 37.4818 28.5154 38.6815C28.2273 40.7381 28.1409 42.4657 28.2561 43.8642C28.3713 45.265 28.6882 46.9651 29.2067 48.9646C29.5523 50.1643 30.0132 51.3503 30.5893 52.5226C31.1654 53.6926 31.7992 54.7918 32.4905 55.8201H3.97324ZM52.3661 48.9646C54.2673 48.9646 55.8954 48.294 57.2504 46.9526C58.6031 45.6089 59.2794 43.9944 59.2794 42.1092C59.2794 40.224 58.6031 38.6095 57.2504 37.2658C55.8954 35.9245 54.2673 35.2538 52.3661 35.2538C50.465 35.2538 48.8381 35.9245 47.4854 37.2658C46.1304 38.6095 45.4529 40.224 45.4529 42.1092C45.4529 43.9944 46.1304 45.6089 47.4854 46.9526C48.8381 48.294 50.465 48.9646 52.3661 48.9646ZM47.8725 54.1062C47.1812 53.8206 46.5325 53.5212 45.9264 53.2082C45.3227 52.8928 44.7039 52.5066 44.0702 52.0496L40.3543 53.1636C39.951 53.2779 39.5766 53.263 39.2309 53.119C38.8853 52.9774 38.5972 52.7351 38.3668 52.3924L36.2928 48.9646C36.0623 48.6219 35.9909 48.2505 36.0785 47.8506C36.1637 47.4507 36.3792 47.108 36.7249 46.8223L39.5766 44.3372C39.4614 43.5374 39.4038 42.7947 39.4038 42.1092C39.4038 41.4237 39.4614 40.681 39.5766 39.8812L36.7249 37.3961C36.3792 37.1104 36.1637 36.7677 36.0785 36.3678C35.9909 35.9679 36.0623 35.5965 36.2928 35.2538L38.3668 31.826C38.5972 31.4833 38.8853 31.2399 39.2309 31.0959C39.5766 30.9543 39.951 30.9405 40.3543 31.0548L44.0702 32.1688C44.7039 31.7118 45.3227 31.3256 45.9264 31.0102C46.5325 30.6972 47.1812 30.3978 47.8725 30.1122L48.6502 26.3417C48.7655 25.9418 48.9671 25.6139 49.2552 25.3579C49.5432 25.0997 49.8889 24.9706 50.2922 24.9706H54.4401C54.8434 24.9706 55.1891 25.0997 55.4771 25.3579C55.7652 25.6139 55.9668 25.9418 56.082 26.3417L56.8598 30.1122C57.5511 30.3978 58.1998 30.712 58.8058 31.0548C59.4096 31.3976 60.0283 31.826 60.6621 32.3402L64.2915 31.0548C64.6948 30.8834 65.0843 30.8834 65.4599 31.0548C65.8332 31.2262 66.1351 31.4833 66.3655 31.826L68.4395 35.4251C68.6699 35.7679 68.7563 36.1393 68.6987 36.5392C68.6411 36.9391 68.4395 37.2818 68.0938 37.5675L65.1557 40.0526C65.2709 40.7381 65.3285 41.4522 65.3285 42.1949C65.3285 42.9376 65.2709 43.6517 65.1557 44.3372L68.0074 46.8223C68.3531 47.108 68.5685 47.4507 68.6538 47.8506C68.7414 48.2505 68.6699 48.6219 68.4395 48.9646L66.3655 52.3924C66.1351 52.7351 65.847 52.9774 65.5013 53.119C65.1557 53.263 64.7812 53.2779 64.3779 53.1636L60.6621 52.0496C60.0283 52.5066 59.4096 52.8928 58.8058 53.2082C58.1998 53.5212 57.5511 53.8206 56.8598 54.1062L56.082 57.8767C55.9668 58.2766 55.7652 58.6045 55.4771 58.8605C55.1891 59.1187 54.8434 59.2478 54.4401 59.2478H50.2922C49.8889 59.2478 49.5432 59.1187 49.2552 58.8605C48.9671 58.6045 48.7655 58.2766 48.6502 57.8767L47.8725 54.1062Z" fill="#F46A06"/>
</svg>
