<?xml version="1.0" standalone="no"?>
<!DOCTYPE svg PUBLIC "-//W3C//DTD SVG 20010904//EN" "http://www.w3.org/TR/2001/REC-SVG-20010904/DTD/svg10.dtd">
<svg version="1.0" xmlns="http://www.w3.org/2000/svg" width="1280.000000pt" height="1226.000000pt"
    viewBox="0 0 1280.000000 1226.000000" preserveAspectRatio="xMidYMid meet">
    <metadata>
        Created by potrace 1.15, written by Peter Selinger 2001-2017
    </metadata>
    <g transform="translate(0.000000,1226.000000) scale(0.100000,-0.100000)" fill="#000000" stroke="none">
        <path d="M7170 12175 c-77 -40 -171 -156 -204 -250 -9 -27 -19 -86 -22 -130
-2 -44 -10 -103 -16 -132 -8 -38 -8 -63 1 -100 32 -128 55 -185 91 -229 21
-26 40 -58 43 -73 3 -14 1 -73 -5 -131 -9 -84 -17 -113 -37 -144 -32 -49 -93
-76 -186 -82 -105 -8 -107 -9 -187 -82 -65 -58 -85 -71 -149 -89 -41 -12 -87
-25 -104 -28 -78 -15 -170 -59 -209 -101 -41 -42 -153 -243 -167 -299 -4 -16
-19 -73 -34 -125 -52 -185 -142 -594 -160 -732 -5 -39 -17 -59 -27 -45 -1 1
-4 137 -8 302 -4 217 -11 328 -23 400 -10 55 -25 141 -33 190 -8 50 -17 100
-20 111 -4 25 -148 121 -294 198 -144 75 -342 199 -372 232 -9 11 -28 42 -43
69 -25 47 -27 55 -21 140 3 50 15 122 26 160 11 39 20 99 20 135 0 36 14 148
30 248 l30 183 -18 43 c-29 65 -123 134 -239 176 -50 18 -77 21 -150 18 -80
-3 -95 -7 -173 -46 -47 -24 -95 -53 -107 -64 -37 -35 -92 -160 -112 -256 -17
-83 -18 -99 -6 -150 8 -31 23 -97 34 -147 11 -49 25 -112 31 -140 7 -27 17
-87 23 -133 10 -77 9 -90 -12 -155 -28 -86 -36 -97 -126 -154 -38 -25 -82 -53
-96 -63 -47 -33 -103 -52 -189 -65 -161 -24 -197 -39 -276 -119 -81 -79 -81
-80 -114 -276 -12 -69 -30 -161 -40 -205 -11 -44 -29 -123 -41 -175 -12 -52
-28 -110 -35 -127 -25 -60 -52 -187 -59 -274 -6 -69 -3 -102 13 -170 11 -46
30 -129 42 -184 12 -55 28 -118 35 -140 7 -22 25 -80 40 -130 14 -49 33 -106
40 -125 8 -19 17 -46 21 -60 3 -14 22 -65 41 -114 l35 -89 -16 -251 c-14 -222
-36 -653 -36 -729 0 -24 7 -31 56 -52 31 -14 62 -25 70 -25 31 0 44 -31 44
-108 0 -42 5 -131 10 -197 5 -66 16 -282 25 -480 15 -365 25 -467 55 -561 14
-47 15 -67 3 -186 -18 -179 -27 -1456 -12 -1578 6 -47 13 -102 16 -122 5 -40
12 -29 -164 -289 -65 -94 -77 -108 -125 -129 -73 -33 -88 -48 -88 -85 0 -43
32 -81 75 -89 124 -24 202 -26 314 -9 118 17 137 27 146 71 10 46 30 76 55 83
14 4 48 13 75 19 111 28 150 41 165 55 12 12 16 45 17 155 3 132 4 142 29 180
31 47 30 31 15 310 -13 232 -10 348 14 580 26 244 35 441 29 609 -5 124 -3
199 9 296 9 72 19 164 22 205 3 41 12 134 20 205 8 72 19 188 25 258 11 132
22 177 40 177 13 0 19 -17 60 -150 53 -177 77 -270 100 -385 12 -60 30 -150
40 -200 10 -49 25 -126 34 -170 8 -44 20 -179 26 -299 9 -199 41 -483 56 -507
3 -5 12 -49 20 -97 10 -64 14 -186 14 -460 0 -239 4 -380 10 -393 6 -10 39
-32 74 -48 35 -16 67 -35 72 -42 5 -8 11 -104 14 -214 5 -187 7 -203 30 -249
l25 -50 80 -18 c164 -36 274 -18 296 49 19 57 2 273 -28 363 -14 41 -30 79
-34 84 -19 21 -7 46 41 81 l50 37 -1 116 c0 65 -5 140 -10 167 -5 28 -14 250
-19 495 -4 245 -13 472 -19 505 -5 33 -15 110 -21 170 -6 61 -17 147 -25 192
-11 64 -12 110 -5 210 5 70 14 227 20 348 6 121 17 321 26 445 8 124 17 297
20 385 7 178 12 193 72 224 41 21 89 68 93 91 3 16 0 29 -31 170 -12 57 -22
166 -30 330 -6 135 -15 297 -20 360 -18 235 -16 259 36 368 54 112 59 123 78
177 8 22 24 65 36 95 12 30 29 76 38 103 28 84 41 57 62 -133 14 -124 39 -204
97 -310 50 -92 116 -170 314 -371 137 -139 183 -180 214 -189 75 -23 77 -33
43 -156 -25 -93 -27 -239 -9 -759 6 -170 11 -440 11 -598 0 -208 4 -323 16
-410 18 -137 14 -302 -9 -378 -8 -25 -31 -74 -51 -109 -60 -103 -67 -179 -42
-505 14 -184 24 -249 58 -390 18 -75 22 -83 74 -132 54 -50 55 -52 52 -99 -3
-47 -4 -49 -48 -64 -74 -26 -85 -55 -85 -237 l0 -152 -28 -29 c-15 -16 -75
-69 -133 -118 -97 -82 -108 -95 -146 -173 -22 -47 -43 -102 -46 -123 -4 -33 0
-41 27 -67 17 -16 53 -42 79 -58 43 -25 56 -27 147 -28 176 0 294 62 352 185
34 72 45 78 148 77 77 -1 97 3 140 23 l50 25 8 69 c7 53 5 79 -7 117 -9 26
-16 58 -16 71 0 26 24 99 45 138 47 87 57 191 25 263 -26 58 -45 292 -44 527
1 149 8 230 45 540 12 101 10 115 -36 240 -19 50 -16 108 9 187 8 27 24 86 35
133 11 47 29 123 40 170 18 78 38 166 77 340 74 332 107 455 157 578 44 110
56 66 87 -332 6 -77 15 -160 20 -186 5 -26 16 -121 25 -211 9 -90 29 -216 43
-279 25 -110 27 -127 25 -375 -1 -198 -4 -274 -16 -320 -21 -82 -35 -316 -43
-725 -6 -297 -5 -351 9 -390 12 -37 14 -79 10 -232 -4 -132 -3 -191 5 -201 7
-8 38 -22 69 -32 181 -56 223 -83 270 -175 19 -36 44 -75 56 -86 33 -32 111
-55 214 -61 76 -5 107 -2 185 18 124 31 132 38 124 112 -4 36 -14 71 -28 90
-35 51 -172 208 -228 262 -78 75 -133 153 -134 189 0 17 1 58 2 90 2 57 4 62
47 101 24 23 49 55 55 71 6 16 15 124 20 239 5 116 12 235 15 265 3 30 10 132
15 225 6 98 16 192 25 220 9 28 18 86 22 130 5 78 5 83 -28 140 -18 33 -48 81
-65 108 l-33 47 5 238 c5 236 7 248 58 507 56 283 57 301 58 690 1 320 -1 379
-16 440 -20 78 -16 156 11 239 23 71 41 100 183 292 81 109 143 204 172 265
25 52 58 119 73 149 27 57 68 201 80 283 6 48 18 60 29 30 4 -10 6 -76 5 -149
-2 -123 0 -133 21 -162 23 -30 23 -35 17 -183 -4 -83 -13 -192 -21 -243 -27
-173 -47 -331 -56 -441 -5 -60 -13 -125 -19 -144 -50 -164 -30 -371 59 -591
46 -113 53 -154 59 -310 l6 -155 40 -19 c22 -10 60 -25 85 -32 25 -7 59 -17
75 -23 17 -5 58 -20 93 -32 71 -25 87 -43 97 -109 3 -25 15 -90 25 -145 38
-204 41 -245 51 -554 9 -311 31 -545 64 -691 8 -36 24 -110 36 -165 11 -55 28
-127 36 -160 24 -92 27 -243 9 -375 -9 -63 -19 -155 -22 -203 l-7 -88 -147
-147 c-140 -140 -210 -229 -210 -265 0 -29 143 -22 393 17 91 14 103 19 167
66 66 47 98 58 134 44 23 -9 20 -48 -10 -114 -32 -71 -25 -90 44 -120 54 -24
108 -23 212 3 105 28 237 72 305 103 17 7 42 18 58 24 29 10 36 23 62 111 14
47 15 68 6 130 -5 41 -16 153 -22 249 -13 182 -6 289 25 419 15 60 42 180 76
331 12 52 29 124 38 160 22 85 21 303 -2 465 -33 233 -55 391 -65 470 -6 44
-17 122 -25 173 -14 88 -14 97 5 170 12 42 24 90 28 107 9 39 35 51 140 64
207 27 312 45 321 56 11 13 -1 156 -25 310 -28 169 -24 181 68 225 26 12 64
37 83 56 35 32 36 35 29 86 -4 29 -20 103 -36 163 -43 163 -79 352 -79 416 0
31 6 92 14 135 8 44 18 106 21 139 4 33 11 80 17 105 23 108 49 261 57 333 7
60 16 89 40 128 36 58 36 62 16 149 -51 222 -56 260 -65 454 -18 400 -38 491
-216 982 -23 64 -68 109 -162 163 -144 82 -219 112 -303 121 -107 12 -169 49
-230 137 -24 34 -33 63 -45 150 -20 132 -18 136 102 242 50 43 87 84 91 99 3
15 -1 103 -9 196 -16 163 -18 172 -56 250 -93 187 -262 326 -397 326 -82 0
-225 -69 -291 -141 -78 -85 -109 -173 -125 -358 -11 -122 -11 -155 5 -271 18
-145 20 -148 129 -335 37 -64 67 -125 67 -135 0 -12 -42 -48 -120 -104 -113
-81 -175 -111 -270 -131 -19 -4 -50 -14 -67 -21 -18 -8 -49 -21 -68 -29 -39
-16 -115 -82 -115 -99 0 -6 -9 -29 -19 -49 -46 -90 -83 -260 -100 -452 -5 -58
-14 -111 -19 -118 -41 -50 -90 -261 -98 -426 -6 -137 -11 -164 -25 -155 -23
14 -40 79 -49 180 -5 58 -16 128 -24 157 -8 29 -24 93 -36 142 -49 206 -173
590 -201 619 -5 6 -9 16 -9 24 0 25 -73 180 -114 242 -40 60 -123 148 -166
175 -49 31 -178 100 -285 152 -322 158 -322 158 -280 248 14 30 46 83 70 119
58 84 80 134 99 226 19 91 39 520 27 572 -11 47 -38 84 -105 145 -64 59 -128
84 -294 119 -146 30 -194 30 -252 -1z m1027 -2922 c13 -32 13 -46 3 -91 -7
-30 -9 -78 -6 -110 6 -56 -3 -90 -21 -79 -20 12 -46 157 -41 226 3 38 8 73 12
80 14 22 37 10 53 -26z m54 -334 c16 -11 29 -28 29 -37 0 -23 -47 -122 -58
-122 -23 0 -32 29 -32 102 0 87 8 95 61 57z m1619 -2950 c77 -281 89 -335 99
-451 6 -68 18 -204 26 -303 9 -99 17 -184 19 -190 2 -5 -7 -59 -20 -120 -13
-60 -28 -135 -34 -165 -11 -62 -37 -104 -68 -108 -22 -3 -21 -6 -42 92 -6 27
-19 67 -29 90 -51 115 -53 128 -42 225 26 208 41 539 30 649 -10 100 -4 396 8
416 9 14 20 -14 53 -135z" />
        <path d="M2383 11725 c-67 -29 -156 -131 -241 -275 -11 -19 -60 -114 -109
-210 -184 -360 -283 -511 -363 -548 l-35 -17 -5 -103 -5 -103 -36 -32 c-170
-150 -210 -358 -127 -662 25 -94 98 -317 128 -395 12 -30 28 -73 35 -95 7 -22
20 -53 29 -70 9 -16 16 -33 16 -38 0 -4 18 -47 41 -95 48 -102 89 -155 165
-214 35 -28 54 -50 54 -64 0 -46 -104 -259 -169 -348 -59 -79 -59 -78 26 -169
47 -49 54 -62 49 -85 -69 -288 -81 -687 -39 -1302 9 -129 16 -347 17 -485 1
-263 0 -273 -54 -470 -46 -168 -52 -206 -66 -407 -20 -289 -31 -925 -15 -968
9 -26 8 -42 -6 -80 -16 -44 -16 -51 0 -90 12 -30 13 -48 6 -67 -5 -14 -7 -65
-3 -116 6 -94 -3 -152 -40 -257 -46 -128 -142 -313 -190 -367 -60 -67 -99
-140 -86 -163 17 -31 89 -42 208 -30 140 14 201 26 239 49 27 17 32 28 43 88
11 64 42 133 60 133 11 0 20 -38 20 -86 0 -50 14 -64 62 -64 46 0 58 19 58 88
0 28 7 86 15 129 9 43 19 144 22 225 l6 146 -36 55 c-20 30 -42 68 -48 83 -12
34 -5 107 21 214 10 41 22 109 25 150 4 41 18 107 32 145 89 253 139 487 154
730 17 277 28 388 44 445 28 97 45 159 59 216 27 103 45 92 66 -37 14 -86 9
-183 -15 -279 -22 -93 -39 -481 -23 -552 7 -29 11 -81 10 -115 -3 -95 -2 -124
4 -445 l5 -296 -26 -49 c-14 -26 -40 -70 -58 -98 -31 -49 -32 -52 -31 -160 1
-60 8 -144 17 -185 9 -41 21 -111 28 -155 6 -44 15 -88 20 -98 12 -21 71 -23
88 -3 7 8 16 49 20 91 15 127 46 129 62 4 5 -40 19 -94 32 -118 37 -75 52 -81
227 -91 102 -6 167 -6 192 1 37 9 68 40 68 67 0 7 -47 59 -103 115 -111 109
-105 99 -164 282 -23 71 -26 97 -27 225 0 100 5 168 17 220 57 256 74 368 117
770 11 107 25 220 30 250 6 30 15 85 22 122 9 53 9 101 -1 220 -19 214 -1 356
78 648 19 70 29 104 82 278 38 126 103 402 114 487 4 28 13 88 21 135 22 125
30 470 14 615 -6 66 -13 145 -15 175 -1 30 -8 68 -14 83 -20 52 -13 81 35 143
52 66 184 329 184 366 0 37 -77 145 -176 247 l-91 93 -83 -3 c-69 -3 -84 -1
-93 13 -14 21 10 97 64 208 47 96 73 181 66 211 -4 13 -20 39 -37 57 l-31 34
22 34 21 35 -56 113 c-31 63 -60 136 -66 162 -5 27 -14 65 -20 84 -18 63 -13
91 25 126 39 35 39 43 -4 108 -54 81 -55 84 -43 161 17 109 5 839 -15 925 -20
85 -64 163 -129 226 -66 65 -128 100 -223 124 -88 23 -124 24 -168 5z" />
        <path d="M112 3288 c-17 -17 -17 -2219 0 -2236 17 -17 152 -16 167 1 7 10 12
166 13 518 l3 504 174 3 c96 1 179 -2 183 -6 6 -6 9 -225 8 -505 -1 -442 1
-497 15 -511 19 -19 124 -22 156 -6 19 10 19 34 19 1120 0 1086 0 1110 -19
1120 -32 17 -137 13 -156 -6 -14 -15 -16 -68 -15 -506 1 -285 -2 -494 -7 -499
-5 -5 -88 -8 -184 -7 l-174 3 -3 499 c-1 348 -6 503 -13 513 -15 17 -150 18
-167 1z" />
        <path d="M966 3284 c-14 -14 -16 -117 -16 -987 0 -1038 0 -1031 49 -1111 26
-41 87 -98 133 -123 28 -15 58 -18 198 -18 141 0 170 3 199 18 59 33 122 100
147 156 l24 53 0 1008 c0 910 -2 1008 -16 1014 -9 3 -47 6 -84 6 -58 0 -71 -3
-80 -20 -7 -13 -10 -327 -10 -966 l0 -946 -21 -35 c-12 -19 -40 -48 -62 -64
-33 -24 -50 -29 -98 -29 -50 0 -63 4 -101 33 -23 18 -53 51 -65 72 l-23 40 0
946 c0 721 -3 948 -12 957 -18 18 -143 16 -162 -4z" />
        <path d="M1821 3287 c-16 -20 -17 -2213 0 -2233 14 -17 120 -19 150 -4 18 10
19 28 20 613 0 331 4 611 8 622 13 32 39 -65 51 -190 6 -60 15 -135 20 -165 5
-30 12 -86 15 -125 4 -38 13 -110 20 -160 7 -49 16 -121 20 -160 3 -38 12
-108 20 -155 8 -47 17 -125 21 -173 4 -56 12 -93 21 -103 19 -18 142 -19 167
-1 14 10 20 42 31 152 8 77 19 165 24 195 6 30 13 82 16 115 3 33 14 128 25
210 26 209 48 397 56 480 4 39 11 81 17 95 l10 25 7 -25 c5 -14 8 -297 9 -631
1 -456 4 -608 13 -617 16 -16 150 -16 166 0 17 17 17 2219 0 2236 -14 14 -255
17 -277 3 -7 -5 -15 -30 -17 -57 -6 -59 -38 -369 -59 -554 -9 -74 -20 -187
-25 -250 -6 -63 -15 -142 -20 -175 -5 -33 -12 -103 -15 -155 -8 -112 -23 -207
-37 -234 -18 -33 -27 2 -39 146 -5 73 -14 158 -19 188 -5 30 -12 87 -15 125
-7 86 -41 407 -60 575 -8 69 -20 179 -26 245 -7 83 -15 125 -26 138 -14 14
-35 17 -138 17 -89 0 -126 -4 -134 -13z" />
        <path d="M3107 3285 c-9 -8 -18 -43 -22 -82 -3 -38 -14 -133 -25 -213 -10 -80
-28 -224 -40 -320 -12 -96 -28 -222 -35 -280 -8 -58 -19 -151 -25 -208 -6 -57
-13 -109 -15 -115 -2 -7 -9 -57 -14 -112 -6 -55 -17 -152 -26 -215 -29 -223
-54 -426 -60 -480 -3 -30 -10 -86 -17 -124 -11 -63 -10 -70 7 -82 24 -18 155
-19 178 -1 13 9 19 40 27 137 12 140 45 408 52 415 2 2 48 5 102 6 112 2 115
-1 116 -71 0 -25 7 -90 15 -145 8 -55 18 -151 21 -212 9 -143 12 -147 124
-141 86 3 105 14 95 53 -7 29 -21 127 -45 320 -11 94 -29 240 -40 325 -10 85
-29 232 -40 325 -12 94 -28 220 -36 280 -8 61 -19 153 -24 205 -6 52 -12 102
-15 110 -2 8 -9 62 -15 120 -6 58 -17 152 -25 210 -8 58 -19 146 -25 195 -7
64 -15 94 -27 103 -25 18 -148 16 -166 -3z m112 -863 c5 -37 13 -107 16 -157
3 -49 10 -117 15 -150 20 -129 30 -288 19 -302 -16 -18 -133 -18 -148 1 -9 11
-9 46 -1 147 7 74 13 137 16 140 2 3 10 86 19 183 15 170 26 223 45 211 4 -3
13 -35 19 -73z" />
        <path d="M3663 3292 c-19 -12 -20 -2232 -1 -2243 19 -12 126 -11 149 1 19 10
19 29 19 728 0 697 3 772 30 732 5 -8 12 -28 14 -45 3 -16 14 -91 26 -165 34
-229 61 -392 75 -470 8 -41 17 -97 20 -125 3 -27 13 -84 20 -125 19 -102 43
-253 62 -385 22 -158 18 -155 159 -155 63 0 124 5 135 10 19 10 19 33 19 1118
0 849 -3 1111 -12 1120 -19 19 -143 16 -163 -4 -15 -15 -16 -83 -14 -731 1
-392 -1 -717 -5 -721 -13 -12 -35 29 -41 77 -10 75 -73 476 -100 626 -8 44
-17 103 -20 130 -3 28 -13 84 -20 125 -15 79 -36 208 -61 375 -9 58 -22 107
-31 118 -14 14 -34 17 -132 17 -64 0 -122 -4 -128 -8z" />
        <path d="M5262 3288 c-9 -9 -12 -271 -12 -1119 0 -968 2 -1108 15 -1119 15
-13 147 -11 161 2 4 4 6 232 5 506 -2 435 0 500 13 511 11 9 48 12 130 9 111
-3 115 -4 153 -34 81 -66 78 -44 80 -539 3 -504 -6 -465 100 -465 54 0 64 3
75 22 10 18 12 131 8 532 l-5 508 -37 33 c-21 18 -38 34 -38 37 0 3 18 24 40
46 l41 40 -3 424 -3 423 -27 47 c-35 58 -92 104 -163 129 -48 17 -83 19 -288
19 -168 0 -236 -3 -245 -12z m465 -214 c76 -62 78 -67 81 -358 4 -330 -4 -367
-96 -423 -32 -20 -51 -23 -148 -23 -72 0 -114 4 -122 12 -18 18 -17 799 1 817
9 9 44 11 129 9 113 -3 117 -4 155 -34z" />
        <path d="M6107 3293 c-4 -3 -7 -506 -7 -1118 0 -851 3 -1114 12 -1123 9 -9
103 -12 359 -12 303 0 350 2 363 16 12 11 16 35 16 84 0 105 14 100 -289 100
-186 0 -260 3 -269 12 -17 17 -17 799 0 816 9 9 83 12 273 12 190 0 264 3 273
12 18 18 16 143 -4 162 -13 14 -52 16 -273 16 -186 0 -260 3 -269 12 -17 17
-17 799 0 816 9 9 83 12 273 12 190 0 264 3 273 12 18 18 16 143 -4 162 -13
14 -61 16 -368 16 -194 0 -356 -3 -359 -7z" />
        <path d="M7104 3281 c-93 -34 -145 -85 -180 -176 -17 -44 -19 -76 -18 -275 1
-191 5 -239 23 -318 12 -51 25 -100 30 -110 5 -9 19 -37 31 -62 41 -83 92
-141 210 -235 147 -118 204 -187 246 -295 13 -35 18 -87 21 -230 4 -178 3
-187 -19 -230 -13 -25 -42 -59 -66 -77 -38 -29 -52 -33 -102 -33 -51 0 -64 4
-101 33 -70 53 -89 101 -89 223 0 71 -4 105 -12 111 -7 4 -44 6 -83 5 -98 -4
-98 -4 -92 -187 3 -124 8 -158 25 -197 26 -59 83 -122 141 -156 45 -26 50 -27
211 -27 192 0 214 7 293 95 74 82 82 119 81 365 -1 219 -11 316 -46 420 -45
131 -97 198 -245 317 -110 88 -169 149 -210 218 -40 69 -51 129 -58 315 -6
177 -6 181 18 225 51 95 159 135 245 91 82 -42 112 -106 112 -239 0 -63 4
-102 12 -110 14 -14 136 -16 158 -2 24 15 21 296 -4 367 -22 65 -88 135 -153
165 -70 32 -304 37 -379 9z" />
        <path d="M7975 3291 c-92 -24 -176 -100 -208 -187 -16 -45 -17 -116 -17 -931
0 -864 0 -883 20 -937 22 -58 76 -120 144 -165 39 -25 43 -26 210 -26 168 0
172 0 211 26 62 41 115 97 138 148 22 46 22 49 25 935 2 872 2 891 -18 951
-23 70 -76 128 -150 166 -40 20 -61 23 -185 26 -77 1 -153 -2 -170 -6z m247
-212 c21 -13 49 -45 63 -70 l25 -47 0 -792 0 -791 -26 -45 c-75 -128 -256
-123 -326 8 l-23 43 0 791 0 791 30 48 c58 93 170 121 257 64z" />
        <path d="M8618 3289 c-17 -9 -18 -68 -18 -998 0 -851 2 -994 15 -1038 17 -58
84 -139 149 -182 40 -26 44 -26 212 -26 167 0 171 0 210 26 55 37 112 97 137
144 l22 40 3 1003 c2 694 -1 1008 -8 1022 -9 17 -21 20 -83 20 -44 0 -78 -5
-85 -12 -9 -9 -12 -235 -12 -957 l0 -945 -21 -44 c-30 -60 -95 -102 -161 -102
-56 0 -116 27 -147 66 -51 65 -51 58 -51 1055 0 836 -2 927 -16 933 -25 10
-127 6 -146 -5z" />
        <path d="M9463 3289 c-10 -10 -13 -248 -13 -1121 0 -1085 0 -1108 19 -1118 25
-13 127 -13 152 0 18 10 19 27 19 514 0 450 2 505 16 510 9 3 61 6 116 6 88 0
104 -3 141 -25 23 -13 53 -41 67 -61 l25 -38 3 -445 c2 -403 4 -447 19 -458
24 -19 138 -17 157 2 13 13 15 78 15 483 0 257 -4 489 -8 516 -7 39 -17 57
-45 84 l-37 33 39 43 c37 40 41 49 47 120 4 41 6 228 3 413 -3 330 -4 339 -27
383 -31 61 -76 106 -136 138 -50 27 -51 27 -305 30 -196 3 -258 0 -267 -9z
m443 -201 c24 -12 56 -39 71 -61 l28 -40 0 -297 0 -296 -27 -41 c-15 -22 -42
-50 -62 -62 -31 -20 -46 -21 -153 -19 l-118 3 -3 409 c-2 321 0 411 10 418 7
4 58 8 112 8 82 0 106 -4 142 -22z" />
        <path d="M10491 3280 c-77 -28 -127 -74 -166 -155 l-25 -50 0 -904 0 -904 28
-55 c33 -66 125 -147 185 -163 24 -6 98 -9 181 -7 121 3 147 6 182 25 60 32
140 125 153 178 14 57 15 352 1 360 -6 4 -42 7 -81 8 -51 0 -73 -3 -80 -14 -5
-8 -9 -56 -9 -107 0 -102 -14 -149 -58 -195 -40 -42 -75 -57 -135 -57 -44 0
-62 5 -96 30 -23 17 -50 45 -61 63 -19 31 -20 55 -20 843 l0 811 29 40 c63 87
182 108 259 46 60 -47 77 -92 80 -213 3 -82 7 -108 20 -117 23 -18 136 -17
152 2 8 10 11 63 8 188 -3 173 -3 174 -33 222 -68 108 -153 145 -337 145 -96
-1 -135 -5 -177 -20z" />
        <path d="M11150 3281 c-7 -13 -10 -378 -10 -1111 0 -733 3 -1098 10 -1111 10
-18 25 -19 358 -19 418 0 395 -7 385 108 -3 42 -8 79 -10 82 -3 3 -127 7 -276
10 l-272 5 0 415 0 415 275 5 c151 3 276 7 278 8 1 1 2 40 2 87 0 47 -1 86 -2
87 -2 1 -127 5 -278 8 l-275 5 0 415 0 415 272 5 c149 3 275 9 279 13 5 4 7
40 6 80 -2 53 -7 75 -19 85 -13 9 -102 12 -365 12 -333 0 -348 -1 -358 -19z" />
        <path d="M12151 3280 c-65 -24 -114 -60 -146 -108 -49 -74 -55 -110 -55 -321
0 -236 19 -365 73 -481 47 -103 99 -165 220 -262 154 -125 212 -195 251 -306
15 -42 18 -87 20 -235 1 -172 0 -184 -22 -225 -12 -23 -41 -56 -64 -72 -34
-25 -51 -30 -97 -30 -73 0 -129 34 -165 101 -23 41 -26 58 -26 147 0 127 -3
131 -102 124 -40 -3 -76 -10 -80 -16 -4 -6 -8 -74 -8 -150 0 -175 14 -227 84
-303 83 -91 103 -98 296 -98 189 0 194 1 281 87 83 82 89 108 89 374 0 183 -4
239 -20 320 -37 180 -108 289 -274 418 -142 111 -210 197 -245 310 -18 58 -21
94 -21 238 0 136 3 175 16 201 73 145 251 156 330 21 23 -40 27 -59 31 -152 2
-59 5 -113 8 -119 6 -17 146 -18 163 -1 8 8 12 59 12 165 0 181 -15 235 -83
304 -70 69 -110 82 -272 86 -120 3 -148 0 -194 -17z" />
    </g>
</svg>