<svg width="16" height="4" viewBox="0 0 16 4" fill="none" xmlns="http://www.w3.org/2000/svg">
<path d="M0.181641 1.55469C0.181641 1.11198 0.337891 0.740885 0.650391 0.441406C0.969401 0.141927 1.38281 -0.0078125 1.89062 -0.0078125C2.40495 -0.0078125 2.8151 0.141927 3.12109 0.441406C3.43359 0.740885 3.58984 1.11198 3.58984 1.55469C3.58984 1.99089 3.43359 2.35872 3.12109 2.6582C2.8151 2.95768 2.40495 3.10742 1.89062 3.10742C1.38281 3.10742 0.969401 2.95768 0.650391 2.6582C0.337891 2.35872 0.181641 1.99089 0.181641 1.55469ZM6.11914 1.55469C6.11914 1.11198 6.27539 0.740885 6.58789 0.441406C6.9069 0.141927 7.32031 -0.0078125 7.82812 -0.0078125C8.34245 -0.0078125 8.7526 0.141927 9.05859 0.441406C9.37109 0.740885 9.52734 1.11198 9.52734 1.55469C9.52734 1.99089 9.37109 2.35872 9.05859 2.6582C8.7526 2.95768 8.34245 3.10742 7.82812 3.10742C7.32031 3.10742 6.9069 2.95768 6.58789 2.6582C6.27539 2.35872 6.11914 1.99089 6.11914 1.55469ZM12.0566 1.55469C12.0566 1.11198 12.2129 0.740885 12.5254 0.441406C12.8444 0.141927 13.2578 -0.0078125 13.7656 -0.0078125C14.2799 -0.0078125 14.6901 0.141927 14.9961 0.441406C15.3086 0.740885 15.4648 1.11198 15.4648 1.55469C15.4648 1.99089 15.3086 2.35872 14.9961 2.6582C14.6901 2.95768 14.2799 3.10742 13.7656 3.10742C13.2578 3.10742 12.8444 2.95768 12.5254 2.6582C12.2129 2.35872 12.0566 1.99089 12.0566 1.55469Z" fill="black"/>
</svg>
