<svg width="501" height="375" viewBox="0 0 501 375" fill="none" xmlns="http://www.w3.org/2000/svg">
<path d="M26.4659 191.154C26.4385 190.793 26.4199 190.429 26.4199 190.06V97.246C26.4199 44.1125 62.1954 0.884766 106.169 0.884766H214.551C219.956 0.884766 224.336 6.17813 224.336 12.7082C224.336 19.2383 219.956 24.5317 214.551 24.5317H106.169C72.9865 24.5317 45.9902 57.1514 45.9902 97.246V173.963C55.4779 167.842 66.0117 163.792 77.1775 162.315V118.726C77.1775 93.5168 94.1508 73.0079 115.014 73.0079H225.259C236.373 73.0079 246.381 78.8298 253.31 88.0793C260.238 78.8298 270.247 73.0079 281.361 73.0079H391.607C412.47 73.0079 429.443 93.5168 429.443 118.726V163.281C438.53 165.22 447.13 168.878 455.01 173.963V97.246C455.01 57.1514 428.013 24.5317 394.831 24.5317H300.404C295 24.5317 290.619 19.2383 290.619 12.7082C290.619 6.17813 295 0.884766 300.404 0.884766H394.831C438.805 0.884766 474.58 44.1125 474.58 97.246V190.06C474.58 190.429 474.561 190.793 474.534 191.154C490.842 210.208 501 236.904 501 266.414V362.683C501 369.212 496.619 374.506 491.215 374.506H9.78516C4.38083 374.506 0 369.212 0 362.683V266.414C0 236.904 10.158 210.208 26.4659 191.154ZM243.524 118.726C243.525 106.556 235.331 96.6548 225.259 96.6548H115.013C104.941 96.6548 96.7468 106.556 96.7468 118.726V161.684H243.524V118.726ZM391.607 96.6548H281.36C271.289 96.6548 263.094 106.556 263.094 118.726V161.684H409.872V118.726H409.873C409.873 106.556 401.679 96.6548 391.607 96.6548ZM19.5703 350.859H481.43V266.414C481.43 221.704 451.327 185.331 414.324 185.331H253.309H86.9617H86.675C49.6734 185.331 19.5703 221.704 19.5703 266.414V350.859Z" fill="#F46A06"/>
</svg>
