<svg width="314" height="165" viewBox="0 0 314 165" fill="none" xmlns="http://www.w3.org/2000/svg">
<path d="M13.7971 0.0292969H301.171C308.256 0.0292969 314 5.27471 314 11.7456V152.342C314 158.813 308.256 164.058 301.171 164.058H13.7971C6.71152 164.058 0.967896 158.813 0.967896 152.342V11.7456C0.967896 5.27471 6.71152 0.0292969 13.7971 0.0292969ZM233.054 140.627L178.691 90.9786L129.37 136.021C129.369 136.021 129.369 136.022 129.368 136.023C129.366 136.025 129.366 136.025 129.365 136.026L124.327 140.627H233.054ZM88.0396 140.626L102.152 127.738L80.5255 107.986L44.786 140.626H88.0396ZM26.6263 124.07L71.4527 83.1322C76.4625 78.557 84.586 78.557 89.5971 83.1322L120.296 111.168L169.619 66.1236C174.629 61.5483 182.752 61.5483 187.763 66.1236L269.342 140.626H288.342V23.462H26.6263V124.07Z" fill="#F46A06"/>
</svg>
