<svg width="158" height="158" viewBox="0 0 158 158" fill="none" xmlns="http://www.w3.org/2000/svg">
<g clip-path="url(#clip0_755_6612)">
<path d="M63.3281 55.5645L55.3475 102.299H68.1112L76.0984 55.5645H63.3281Z" fill="white"/>
<path d="M44.6454 55.6153L32.1443 87.4868L30.8114 82.6744C28.346 76.876 21.3469 68.5486 13.1299 63.3006L24.5609 102.274L38.0665 102.251L58.1675 55.6055L44.6454 55.6153Z" fill="white"/>
<path d="M25.9659 58.9609C25.224 56.1141 23.0737 55.2656 20.4047 55.1641H0.615681L0.451538 56.0944C15.8514 59.8224 26.0414 68.805 30.2697 79.6057L25.9659 58.9609Z" fill="white"/>
<path d="M101.967 64.524C106.143 64.4585 109.17 65.3692 111.52 66.3126L112.673 66.8532L114.4 56.724C111.872 55.7773 107.909 54.7617 102.965 54.7617C90.3526 54.7617 81.4626 61.1006 81.3937 70.1848C81.3116 76.8971 87.7263 80.6448 92.5718 82.8822C97.5454 85.1754 99.2131 86.6332 99.1901 88.6806C99.1507 91.8091 95.2244 93.244 91.5574 93.244C86.446 93.244 83.7311 92.5397 79.5389 90.7969L77.8942 90.05L76.0984 100.51C79.0859 101.817 84.5978 102.941 90.3198 103C103.737 103 112.456 96.7361 112.548 87.0296C112.604 81.7193 109.2 77.667 101.823 74.3419C97.3582 72.1732 94.6269 70.7318 94.6532 68.5435C94.6532 66.6009 96.9709 64.524 101.967 64.524Z" fill="white"/>
<path d="M147.156 55.6152H137.294C134.231 55.6152 131.953 56.4473 130.607 59.4939L111.655 102.323H125.059C125.059 102.323 127.245 96.5643 127.741 95.303C129.209 95.303 142.232 95.3227 144.086 95.3227C144.467 96.9541 145.643 102.323 145.643 102.323H157.484L147.156 55.6152ZM131.415 85.7374C132.465 83.0544 136.5 72.6762 136.5 72.6762C136.431 72.804 137.54 69.9736 138.2 68.2144L139.06 72.2438C139.06 72.2438 141.506 83.4016 142.018 85.7374H131.415Z" fill="white"/>
</g>
<defs>
<clipPath id="clip0_755_6612">
<rect width="157.032" height="156.701" fill="white" transform="translate(0.451538 0.53125)"/>
</clipPath>
</defs>
</svg>
