<svg width="1364" height="119" viewBox="0 0 1364 119" fill="none" xmlns="http://www.w3.org/2000/svg">
<path fill-rule="evenodd" clip-rule="evenodd" d="M0 0L56.4781 4.44421C114.022 8.88842 226.978 17.7768 341 32.8188C455.022 48.2026 567.978 70.0818 682 74.526C796.022 78.9702 908.978 65.6376 1023 61.5352C1137.02 57.091 1249.98 61.5352 1307.52 63.5864L1364 65.6376V118.284H1307.52C1249.98 118.284 1137.02 118.284 1023 118.284C908.978 118.284 796.022 118.284 682 118.284C567.978 118.284 455.022 118.284 341 118.284C226.978 118.284 114.022 118.284 56.4781 118.284H0V0Z" fill="#F46A06"/>
<path fill-rule="evenodd" clip-rule="evenodd" d="M0 47.3138L45.4667 56.7765C90.9333 66.2393 181.867 85.1648 272.8 80.4334C363.733 75.702 454.667 47.3138 545.6 28.3883C636.533 9.46275 727.467 0 818.4 0C909.333 0 1000.27 9.46275 1091.2 26.0226C1182.13 42.5824 1273.07 66.2393 1318.53 78.0677L1364 89.8961V118.284H1318.53C1273.07 118.284 1182.13 118.284 1091.2 118.284C1000.27 118.284 909.333 118.284 818.4 118.284C727.467 118.284 636.533 118.284 545.6 118.284C454.667 118.284 363.733 118.284 272.8 118.284C181.867 118.284 90.9333 118.284 45.4667 118.284H0V47.3138Z" fill="#1F1C1C"/>
</svg>
